HIERARCHY
ROOT Hips
{
  OFFSET 47.347 93.3489 130.563
  CHANNELS 6 Xposition Yposition Zposition Zrotation Xrotation Yrotation
  JOINT ToSpine
  {
    OFFSET -2.69724 7.43032 -0.144315
    CHANNELS 3 Zrotation Xrotation Yrotation
    JOINT Spine
    {
      OFFSET -0.0310711 10.7595 1.96963
      CHANNELS 3 Zrotation Xrotation Yrotation
      JOINT Spine1
      {
        OFFSET 13.1342 3.43533 0.764692
        CHANNELS 3 Zrotation Xrotation Yrotation
        JOINT Neck
        {
          OFFSET 29.8703 7.82586 -0.130764
          CHANNELS 3 Zrotation Xrotation Yrotation
          JOINT Head
          {
            OFFSET 9.52751 0.295786 -0.907742
            CHANNELS 3 Zrotation Xrotation Yrotation
            End Site
            {
              OFFSET 16.4037 0.713936 2.7358
            }
          }
        }
        JOINT LeftShoulder
        {
          OFFSET 27.5574 4.95586 2.47156
          CHANNELS 3 Zrotation Xrotation Yrotation
          JOINT LeftArm
          {
            OFFSET 1.20734 -0.998971 20.1238
            CHANNELS 3 Zrotation Xrotation Yrotation
            JOINT LeftForeArm
            {
              OFFSET 26.8049 -0.0536703 -0.155908
              CHANNELS 3 Zrotation Xrotation Yrotation
              JOINT LeftHand
              {
                OFFSET 26.6817 0 0.320147
                CHANNELS 3 Zrotation Xrotation Yrotation
                End Site
                {
                  OFFSET 18.6119 0 0.382219
                }
              }
            }
          }
        }
        JOINT RightShoulder
        {
          OFFSET 27.5927 4.71444 -2.65209
          CHANNELS 3 Zrotation Xrotation Yrotation
          JOINT RightArm
          {
            OFFSET 2.83739 -1.17114 -18.7564
            CHANNELS 3 Zrotation Xrotation Yrotation
            JOINT RightForeArm
            {
              OFFSET 28.839 -0.0548439 1.22491
              CHANNELS 3 Zrotation Xrotation Yrotation
              JOINT RightHand
              {
                OFFSET 26.5114 0 -0.101894
                CHANNELS 3 Zrotation Xrotation Yrotation
                End Site
                {
                  OFFSET 18.2168 0 0
                }
              }
            }
          }
        }
      }
    }
  }
  JOINT LeftUpLeg
  {
    OFFSET -4.76168 -1.9167 -10.2353
    CHANNELS 3 Zrotation Xrotation Yrotation
    JOINT LeftLeg
    {
      OFFSET 2.55951 -42.0585 -8.02213
      CHANNELS 3 Zrotation Xrotation Yrotation
      JOINT LeftFoot
      {
        OFFSET 3.16357 -42.5282 -3.95426
        CHANNELS 3 Zrotation Xrotation Yrotation
        JOINT LeftToeBase
        {
          OFFSET 0.346054 -6.02161 12.8035
          CHANNELS 3 Zrotation Xrotation Yrotation
          End Site
          {
            OFFSET 0.134235 -1.35082 5.13018
          }
        }
      }
    }
  }
  JOINT RightUpLeg
  {
    OFFSET -4.94151 -1.41743 10.6446
    CHANNELS 3 Zrotation Xrotation Yrotation
    JOINT RightLeg
    {
      OFFSET -2.56294 -42.0364 -7.94377
      CHANNELS 3 Zrotation Xrotation Yrotation
      JOINT RightFoot
      {
        OFFSET -3.0952 -42.555 -4.02241
        CHANNELS 3 Zrotation Xrotation Yrotation
        JOINT RightToeBase
        {
          OFFSET -0.0828122 -6.13587 12.8035
          CHANNELS 3 Zrotation Xrotation Yrotation
          End Site
          {
            OFFSET -0.131328 -1.35082 5.13018
          }
        }
      }
    }
  }
}
MOTION
Frames:	11
Frame Time:	0.0333333
47.3375 93.3264 130.466 58.7088 -57.6075 -24.218 -70.1915 0 88.8779 79.4414 74.2135 3.93451 1.06835 23.1498 4.71148 -124.937 30.2627 159.386 -169.783 73.6484 -160.996 0.81576 -12.0096 -22.4166 -67.4047 39.5242 -130.149 23.0684 -8.52558 -108.43 0.420957 0.000574299 0.35866 -1.18746 6.18808 33.8736 -135.689 -19.3891 81.6365 12.869 8.55609 122.631 0.58676 0.000331022 0.0646653 -46.6947 4.09941 88.4253 -3.33408 47.3568 -6.06541 5.2168 -19.5038 -1.4267 0.433513 -4.67801 11.1165 -41.3526 -17.1313 79.7714 1.02028 27.9409 -9.40881 -4.38067 -2.80151 0.824699 0.191832 0.507061 -1.57456 
47.3375 93.3372 130.489 58.5076 -57.6905 -24.3551 -70.1915 0 88.8779 79.1644 74.2262 4.33012 1.18952 23.2035 4.59167 -125.336 30.2985 159.272 -169.06 73.6718 -162.074 0.843343 -11.8102 -22.243 -67.4262 40.1502 -130.107 24.0174 -9.01008 -108.601 0.420957 0.000574299 0.35866 -1.16338 6.10406 33.7707 -135.896 -19.4555 81.5749 12.323 8.26181 122.875 0.58676 0.000331022 0.0646653 -46.6893 4.18965 88.4177 -3.36381 47.327 -6.34118 4.97739 -19.6128 -1.44146 0.442245 -4.9218 11.976 -41.2682 -16.9352 79.9203 0.910936 27.909 -9.44405 -4.47274 -2.72937 0.831648 0.110278 0.463061 -1.05998 
47.3375 93.3342 130.511 58.2904 -57.7779 -24.4421 -70.1915 0 88.8779 79.1955 74.2235 4.49432 1.2169 23.2316 4.49923 -126.398 30.2177 159.555 -170.607 73.4095 -161.803 0.859845 -11.6993 -22.0097 -67.0265 41.4071 -130.051 24.6696 -9.39769 -108.806 0.420957 0.000574299 0.35866 -1.16398 5.98985 34.1872 -136.221 -19.1175 81.8164 10.8179 7.38549 123.404 0.58676 0.000331022 0.0646653 -46.5968 4.41396 88.5604 -3.33111 47.3803 -6.00003 5.24257 -19.5987 -1.42884 1.20533 -5.92501 10.8632 -41.2128 -16.6308 80.076 0.852745 27.8609 -9.15543 -4.71153 -2.60208 0.852396 0.388078 0.43218 -2.70112 
47.3378 93.3596 130.524 58.4037 -57.6989 -24.328 -70.1915 0 88.8779 79.7582 74.1693 3.89766 1.0931 23.1852 4.38746 -126.571 30.1375 159.454 -170.61 73.3411 -162.151 0.822581 -12.1023 -21.359 -65.4189 41.9137 -130.995 23.7762 -9.14141 -109.061 0.420957 0.000574299 0.35866 -1.15103 5.88182 34.3647 -136.113 -19.1618 82.003 11.0307 7.48166 123.227 0.58676 0.000331022 0.0646653 -46.6305 4.35315 88.4217 -3.40195 47.4025 -6.55228 5.11264 -19.7064 -1.43882 0.930089 -5.74007 11.976 -41.3489 -16.6521 80.0056 0.882662 27.7413 -9.33508 -4.89571 -2.53041 0.869639 0.407893 0.193145 -2.68098 
47.3408 93.3677 130.538 58.3121 -57.6763 -24.415 -70.1915 0 88.8779 80.0166 74.2058 3.67323 0.938806 23.2427 4.32022 -126.36 29.9701 158.96 -168.206 73.3261 -164.334 0.817413 -12.1332 -21.4392 -65.4719 41.7274 -130.894 23.7809 -9.12771 -109.03 0.420957 0.000574299 0.35866 -1.15591 5.90211 34.3753 -136.157 -18.9829 81.815 10.7671 7.35498 123.42 0.58676 0.000331022 0.0646653 -46.59 4.38146 88.5187 -3.3645 47.3336 -6.33876 5.42725 -19.4673 -1.41584 0.966185 -5.70607 11.6023 -41.2728 -16.721 79.9776 0.895768 27.79 -9.28849 -4.70602 -2.73346 0.856536 0.329303 0.584566 -2.44043 
47.3489 93.3529 130.571 58.2727 -57.7622 -24.4167 -70.1915 0 88.8779 80.5571 74.191 3.2981 0.817026 23.2834 4.1067 -126.235 29.9623 158.997 -168.843 73.3256 -163.674 0.838978 -11.974 -21.253 -65.0094 42.0256 -131.294 24.0906 -9.19138 -108.892 0.420957 0.000574299 0.35866 -1.21699 6.05828 34.8173 -136.16 -18.6126 81.9678 10.7156 7.31392 123.4 0.58676 0.000331022 0.0646653 -46.6446 4.4118 88.4479 -3.34715 47.3646 -6.15548 5.23339 -19.6223 -1.43004 1.06692 -5.78743 11.2477 -41.3001 -16.5633 80.0408 0.845133 27.7853 -9.30242 -4.61265 -2.6422 0.843424 0.420653 0.220099 -2.7728 
47.3493 93.3717 130.602 58.3426 -57.6659 -24.3353 -70.1915 0 88.8779 80.6417 74.102 3.21322 0.820091 23.1896 4.09583 -126.391 30.0509 159.387 -169.817 73.2981 -162.794 0.84773 -11.8969 -21.263 -65.0141 41.8986 -131.285 24.0568 -9.20392 -108.945 0.420957 0.000574299 0.35866 -1.22658 6.16066 34.6066 -136.142 -18.8575 81.9318 10.6568 7.27662 123.412 0.58676 0.000331022 0.0646653 -46.6794 4.34489 88.2837 -3.39758 47.335 -6.61008 4.9384 -19.6415 -1.44433 1.01826 -5.92899 12.1358 -41.3303 -16.5835 80.0177 0.863711 27.8262 -9.15286 -4.93347 -2.47155 0.871703 0.51888 -0.257582 -3.10141 
47.3411 93.3519 130.65 58.2729 -57.5736 -24.2768 -70.1915 0 88.8779 79.8966 74.0817 3.97051 1.01303 23.1595 4.19303 -126.483 30.0762 159.222 -169.046 73.3522 -163.61 0.839126 -11.9648 -21.3099 -65.0624 41.8834 -131.355 24.1281 -9.20936 -108.896 0.420957 0.000574299 0.35866 -1.19362 6.05293 34.452 -135.975 -19.125 81.9944 10.5946 7.2548 123.488 0.58676 0.000331022 0.0646653 -46.5462 4.53062 88.3479 -3.32922 47.3503 -6.02646 5.12679 -19.7085 -1.43815 1.14655 -5.7551 10.5977 -41.2455 -16.544 80.0096 0.850848 27.9765 -9.41557 -4.78011 -2.77205 0.865817 0.449442 0.114493 -2.88979 
47.3412 93.3434 130.736 58.4323 -57.5265 -24.2113 -70.1915 0 88.8779 79.9157 74.0605 3.91208 1.01334 23.158 4.08818 -126.361 30.1563 159.443 -169.996 73.3861 -162.456 0.828532 -12.0589 -21.2955 -65.2075 41.8525 -131.07 23.8301 -9.14825 -109.029 0.420957 0.000574299 0.35866 -1.20313 6.11833 34.3741 -136.038 -19.1242 81.8792 10.3367 7.07805 123.493 0.58676 0.000331022 0.0646653 -46.6736 4.39826 88.1723 -3.42295 47.3844 -6.74842 4.93082 -19.8617 -1.45302 0.930989 -5.78075 12.1313 -41.3519 -16.6778 79.7907 0.895511 28.0871 -9.44615 -5.04714 -3.04055 0.903093 0.456925 -0.243905 -2.7229 
47.2666 93.298 130.823 58.659 -57.439 -23.9089 -70.1915 0 88.8779 80.2161 74.0489 3.78614 1.17923 23.2078 3.83256 -126.347 30.2121 159.245 -169.859 73.4881 -162.587 0.810739 -12.2023 -21.3587 -65.4062 41.7894 -130.913 23.9253 -9.13103 -108.914 0.420957 0.000574299 0.35866 -1.19522 6.07197 34.4103 -136.08 -19.0967 81.8435 10.4853 7.20318 123.575 0.58676 0.000331022 0.0646653 -46.6964 4.4751 87.9292 -3.45529 47.5216 -6.84293 4.6974 -19.9035 -1.46644 1.11248 -6.07475 12.0959 -41.2112 -16.7486 79.5553 0.883259 28.7551 -9.54878 -5.46552 -3.63241 0.963843 0.335759 -0.212416 -1.99791 
47.1409 93.1847 130.895 58.7715 -57.4903 -23.7361 -70.1915 0 88.8779 80.845 74.1183 3.21277 1.17753 23.3004 3.70615 -126.323 30.1323 158.803 -169.267 73.5233 -163.118 0.812777 -12.2167 -21.1573 -65.3281 42.1361 -130.899 24.3384 -9.29595 -108.886 0.420957 0.000574299 0.35866 -1.19455 6.09539 34.315 -136.209 -19.1616 81.8085 10.569 7.2629 123.582 0.58676 0.000331022 0.0646653 -46.67 4.64409 87.7229 -3.45191 47.7641 -6.54521 4.22687 -20.4712 -1.51436 1.10145 -5.80521 11.0971 -40.6479 -16.6953 79.4501 0.707284 29.9915 -9.84363 -6.46638 -3.80219 1.06844 0.310899 -1.21842 -1.10833 
